<?xml version="1.0" encoding="UTF-8"?>
<svg id="Layer_1" xmlns="http://www.w3.org/2000/svg" version="1.1" viewBox="0 0 60 60">
  <!-- Generator: Adobe Illustrator 30.2.1, SVG Export Plug-In . SVG Version: 2.1.1 Build 1)  -->
  <defs>
    <style>
      .st0 {
        fill: #e0ff4f;
      }

      .st1 {
        fill: #fff;
        stroke: #000;
        stroke-miterlimit: 10;
      }
    </style>
  </defs>
  <path class="st0" d="M57.34,28.88l-3.68-1.35c-.12-1.32-.35-2.61-.68-3.86l2.99-2.54c1.22-.71,1.64-2.27.93-3.49l-3.02-5.21c-.71-1.22-2.27-1.64-3.49-.93l-3.68,1.33c-.93-.92-1.93-1.75-2.99-2.51l.67-3.87c.48-1.32-.2-2.79-1.52-3.27l-5.66-2.07c-1.32-.48-2.79.2-3.27,1.52l-1.98,3.39c-.65-.05-1.3-.09-1.96-.09s-1.31.03-1.96.09l-1.98-3.39c-.48-1.32-1.95-2.01-3.27-1.52l-5.66,2.07c-1.32.48-2.01,1.95-1.52,3.27l.67,3.87c-1.07.76-2.07,1.59-2.99,2.51l-3.68-1.33c-1.22-.71-2.78-.29-3.49.93l-3.02,5.21c-.71,1.22-.29,2.78.93,3.49l2.99,2.54c-.33,1.25-.56,2.54-.68,3.86l-3.68,1.35c-1.39.24-2.32,1.57-2.07,2.96l1.04,5.93c.24,1.39,1.57,2.32,2.96,2.07l3.92.02c.56,1.17,1.21,2.29,1.94,3.35l-1.95,3.39c-.91,1.08-.77,2.69.31,3.6l4.6,3.88c1.08.91,2.69.77,3.6-.31l3.01-2.5c1.19.55,2.43,1.01,3.72,1.36l.69,3.85c0,1.41,1.14,2.55,2.55,2.55h6.02c1.41,0,2.55-1.14,2.55-2.55l.69-3.85c1.29-.35,2.53-.81,3.72-1.36l3.01,2.5c.91,1.08,2.52,1.21,3.6.31l4.6-3.88c1.08-.91,1.21-2.52.31-3.6l-1.95-3.39c.73-1.06,1.38-2.18,1.94-3.35l3.92-.02c1.39.24,2.71-.68,2.96-2.07l1.04-5.93c.24-1.39-.68-2.71-2.07-2.96ZM30,46.42c-9.23,0-16.71-7.48-16.71-16.71s7.48-16.71,16.71-16.71,16.71,7.48,16.71,16.71-7.48,16.71-16.71,16.71Z"/>
  <g>
    <path class="st1" d="M-47.1,45.06c-12.08,0-21.92-9.83-21.92-21.92S-59.18,1.23-47.1,1.23s21.92,9.83,21.92,21.92-9.83,21.92-21.92,21.92Z"/>
    <path class="st1" d="M-64.28,22.34l1.31,7.44c.23,1.28-.63,2.5-1.91,2.73l-5.64-.02c-1.28.23-2.5-.63-2.73-1.91l-.96-5.47c-.23-1.28.63-2.5,1.91-2.73l5.3-1.95c1.28-.23,2.5.63,2.73,1.91Z"/>
    <path class="st1" d="M-50.88,39.93h7.55c1.3,0,2.35,1.05,2.35,2.35l-1,5.55c0,1.3-1.05,2.35-2.35,2.35h-5.55c-1.3,0-2.35-1.05-2.35-2.35l-1-5.55c0-1.3,1.05-2.35,2.35-2.35Z"/>
    <path class="st1" d="M-30.67,18.03l-3.79-6.54c-.65-1.13-.27-2.57.86-3.22l5.31-1.92c1.13-.65,2.57-.27,3.22.86l2.79,4.81c.65,1.13.27,2.57-.86,3.22l-4.3,3.65c-1.13.65-2.57.27-3.22-.86Z"/>
    <path class="st1" d="M-49.29,6.07l-7.1,2.59c-1.22.45-2.57-.18-3.02-1.4l-.97-5.56c-.45-1.22.18-2.57,1.4-3.02l5.22-1.91c1.22-.45,2.57.18,3.02,1.4l2.84,4.87c.45,1.22-.18,2.57-1.4,3.02Z"/>
    <path class="st1" d="M-60.79,33.54l5.77,4.87c.99.84,1.12,2.32.28,3.32l-4.35,3.6c-.84.99-2.32,1.12-3.32.28l-4.25-3.58c-.99-.84-1.12-2.32-.28-3.32l2.82-4.89c.84-.99,2.32-1.12,3.32-.28Z"/>
    <path class="st1" d="M-31.22,29.78l1.31-7.44c.23-1.28,1.45-2.14,2.73-1.91l5.3,1.95c1.28.23,2.14,1.45,1.91,2.73l-.96,5.47c-.23,1.28-1.45,2.14-2.73,1.91l-5.64.02c-1.28-.23-2.14-1.45-1.91-2.73Z"/>
    <path class="st1" d="M-37.81,8.66l-7.1-2.59c-1.22-.45-1.85-1.8-1.4-3.02l2.84-4.87c.45-1.22,1.8-1.85,3.02-1.4l5.22,1.91c1.22.45,1.85,1.8,1.4,3.02l-.97,5.56c-.45,1.22-1.8,1.85-3.02,1.4Z"/>
    <path class="st1" d="M-59.74,11.49l-3.79,6.54c-.65,1.13-2.09,1.51-3.22.86l-4.3-3.65c-1.13-.65-1.51-2.09-.86-3.22l2.79-4.81c.65-1.13,2.09-1.51,3.22-.86l5.31,1.92c1.13.65,1.51,2.09.86,3.22Z"/>
    <path class="st1" d="M-39.18,38.41l5.77-4.87c.99-.84,2.48-.71,3.32.28l2.82,4.89c.84.99.71,2.48-.28,3.32l-4.25,3.58c-.99.84-2.48.71-3.32-.28l-4.35-3.6c-.84-.99-.71-2.48.28-3.32Z"/>
  </g>
  <circle class="st1" cx="-47.1" cy="23.14" r="11.92"/>
</svg>